HIERARCHY
ROOT Hips
{
	OFFSET 0.000000 0.000000 0.000000
	CHANNELS 6 Xposition Yposition Zposition Zrotation Yrotation Xrotation 
	JOINT LHipJoint
	{
		OFFSET 0.000000 0.000000 0.000000
		CHANNELS 3 Zrotation Yrotation Xrotation
		JOINT LeftUpLeg
		{
			OFFSET 1.363060 -1.794630 0.839290
			CHANNELS 3 Zrotation Yrotation Xrotation
			JOINT LeftLeg
			{
				OFFSET 2.448110 -6.726130 0.000000
				CHANNELS 3 Zrotation Yrotation Xrotation
				JOINT LeftFoot
				{
					OFFSET 2.562200 -7.039590 0.000000
					CHANNELS 3 Zrotation Yrotation Xrotation
					JOINT LeftToeBase
					{
						OFFSET 0.157640 -0.433110 2.322550
						CHANNELS 3 Zrotation Yrotation Xrotation
						End Site
						{
							OFFSET 0.000000 0.000000 0.000000
						}
					}
				}
			}
		}
	}
	JOINT RHipJoint
	{
		OFFSET 0.000000 0.000000 0.000000
		CHANNELS 3 Zrotation Yrotation Xrotation
		JOINT RightUpLeg
		{
			OFFSET -1.305520 -1.794630 0.839290
			CHANNELS 3 Zrotation Yrotation Xrotation
			JOINT RightLeg
			{
				OFFSET -2.542530 -6.985550 0.000000
				CHANNELS 3 Zrotation Yrotation Xrotation
				JOINT RightFoot
				{
					OFFSET -2.568260 -7.056230 0.000000
					CHANNELS 3 Zrotation Yrotation Xrotation
					JOINT RightToeBase
					{
						OFFSET -0.164730 -0.452590 2.363150
						CHANNELS 3 Zrotation Yrotation Xrotation
						End Site
						{
							OFFSET 0.000000 0.000000 0.000000
						}
					}
				}
			}
		}
	}
	JOINT LowerBack
	{
		OFFSET 0.000000 0.000000 0.000000
		CHANNELS 3 Zrotation Yrotation Xrotation
		JOINT Spine
		{
			OFFSET 0.028270 2.035590 -0.193380
			CHANNELS 3 Zrotation Yrotation Xrotation
			JOINT Spine1
			{
				OFFSET 0.056720 2.048850 -0.042750
				CHANNELS 3 Zrotation Yrotation Xrotation
				JOINT Neck
				{
					OFFSET 0.000000 0.000000 0.000000
					CHANNELS 3 Zrotation Yrotation Xrotation
					JOINT Neck1
					{
						OFFSET -0.054170 1.746240 0.172020
						CHANNELS 3 Zrotation Yrotation Xrotation
						JOINT Head
						{
							OFFSET 0.104070 1.761360 -0.123970
							CHANNELS 3 Zrotation Yrotation Xrotation
							End Site
							{
								OFFSET 0.000000 0.000000 0.000000
							}
						}
					}
				}
				JOINT LeftShoulder
				{
					OFFSET 0.000000 0.000000 0.000000
					CHANNELS 3 Zrotation Yrotation Xrotation
					JOINT LeftArm
					{
						OFFSET 3.362410 1.200890 -0.311210
						CHANNELS 3 Zrotation Yrotation Xrotation
						JOINT LeftForeArm
						{
							OFFSET 4.983000 -0.000000 -0.000000
							CHANNELS 3 Zrotation Yrotation Xrotation
							JOINT LeftHand
							{
								OFFSET 3.483560 -0.000000 -0.000000
								CHANNELS 3 Zrotation Yrotation Xrotation
								JOINT LeftFingerBase
								{
									OFFSET 0.000000 0.000000 0.000000
									CHANNELS 3 Zrotation Yrotation Xrotation
									JOINT LeftHandIndex1
									{
										OFFSET 0.715260 -0.000000 -0.000000
										CHANNELS 3 Zrotation Yrotation Xrotation
										End Site
										{
											OFFSET 0.000000 0.000000 0.000000
										}
									}
								}
								JOINT LThumb
								{
									OFFSET 0.000000 0.000000 0.000000
									CHANNELS 3 Zrotation Yrotation Xrotation
									End Site
									{
										OFFSET 0.000000 0.000000 0.000000
									}
								}
							}
						}
					}
				}
				JOINT RightShoulder
				{
					OFFSET 0.000000 0.000000 0.000000
					CHANNELS 3 Zrotation Yrotation Xrotation
					JOINT RightArm
					{
						OFFSET -3.136600 1.374050 -0.404650
						CHANNELS 3 Zrotation Yrotation Xrotation
						JOINT RightForeArm
						{
							OFFSET -5.241900 -0.000000 -0.000000
							CHANNELS 3 Zrotation Yrotation Xrotation
							JOINT RightHand
							{
								OFFSET -3.444170 -0.000000 -0.000000
								CHANNELS 3 Zrotation Yrotation Xrotation
								JOINT RightFingerBase
								{
									OFFSET 0.000000 0.000000 0.000000
									CHANNELS 3 Zrotation Yrotation Xrotation
									JOINT RightHandIndex1
									{
										OFFSET -0.622530 -0.000000 -0.000000
										CHANNELS 3 Zrotation Yrotation Xrotation
										End Site
										{
											OFFSET 0.000000 0.000000 0.000000
										}
									}
								}
								JOINT RThumb
								{
									OFFSET 0.000000 0.000000 0.000000
									CHANNELS 3 Zrotation Yrotation Xrotation
									End Site
									{
										OFFSET 0.000000 0.000000 0.000000
									}
								}
							}
						}
					}
				}
			}
		}
	}
}
MOTION
Frames: 4
Frame Time: 0.008333
3.833626 20.596097 2.576095 39.609808 -88.858395 -15.327349 -11.677876 4.294955 3.163314 -3.749351 1.580347 -10.506654 0.198308 0.491519 13.882532 2.188047 7.298922 41.760288 4.564799 -0.000000 -61.621600 11.139125 -3.758042 0.860028 3.701184 -8.737542 -8.923259 0.853666 -0.867769 9.280136 -0.770456 8.604889 45.675187 7.022100 0.000000 -76.370000 -0.358090 -1.056835 -4.462787 -0.019899 -1.031923 -4.006059 -2.250559 -1.034267 -1.851079 -0.743688 -6.115183 2.456136 -1.418980 -0.257518 2.765838 0.000000 0.000000 0.000000 19.161843 0.045012 -3.150037 -58.803055 -23.580783 -5.404519 178.835725 -68.849499 179.852861 11.310099 -3.216338 -0.399869 -0.105387 0.792419 -0.000000 0.000000 0.000000 0.000000 0.000000 0.000000 0.000000 -9.373658 -3.611720 -3.294145 53.016863 46.557191 1.511151 -179.574362 89.502952 179.795419 -17.450886 14.858506 -2.444224 0.134573 -0.831990 -0.000000 0.000000 0.000000 0.000000 0.000000 0.000000 0.000000 
3.628635 20.780590 2.562398 45.126559 -89.141536 -21.001102 -11.640899 4.254249 2.939113 -4.072247 2.514992 -11.102173 0.123416 0.531405 14.883032 2.122504 6.510396 41.211786 3.944100 -0.000000 -62.411900 11.212923 -3.681278 0.734941 3.726357 -9.256442 -9.437300 0.903130 -0.886860 9.511371 -0.733448 8.415013 44.899653 6.797900 -0.000000 -76.962600 -0.341596 -1.111380 -4.120101 0.002712 -1.083726 -3.924305 -2.168312 -1.086603 -1.789520 -0.975434 -6.008333 2.565471 -1.448258 -0.260284 2.787707 0.000000 0.000000 0.000000 19.820711 0.577526 -3.137985 -57.908071 -22.130823 -7.345261 178.639279 -66.230924 179.840545 12.135205 -3.311304 -0.441704 -0.130972 0.805631 -0.000000 0.000000 0.000000 0.000000 0.000000 0.000000 0.000000 -9.736746 -3.693874 -3.545680 51.449240 46.478725 -0.128897 -179.414836 87.318554 179.779212 -18.663143 15.148855 -2.671077 0.155041 -0.852697 -0.000000 0.000000 0.000000 0.000000 0.000000 0.000000 0.000000 
3.426143 20.955837 2.549221 50.315688 -89.337650 -26.297088 -11.614663 4.200985 2.702862 -4.388777 3.521303 -11.765973 0.041220 0.565573 15.664270 2.061449 5.675501 40.927108 3.319500 -0.000000 -63.190000 11.284304 -3.604166 0.596263 3.786386 -9.872260 -9.964854 0.980161 -0.893349 9.477842 -0.689688 8.285991 44.201411 6.625000 0.000000 -77.383400 -0.322304 -1.181562 -3.746496 0.029980 -1.150066 -3.836616 -2.076351 -1.154821 -1.725993 -1.239918 -5.915328 2.692583 -1.469344 -0.262647 2.812843 0.000000 0.000000 0.000000 20.452278 1.076676 -3.120413 -57.151768 -20.714492 -9.293671 178.423613 -63.801438 179.825626 13.220322 -3.283914 -0.480127 -0.165314 0.814101 -0.000000 0.000000 0.000000 0.000000 0.000000 0.000000 0.000000 -10.179600 -3.817203 -3.820140 50.019789 46.260298 -1.789883 -179.233170 85.173829 179.760881 -20.120669 15.391021 -2.933440 0.180673 -0.871867 -0.000000 0.000000 0.000000 0.000000 0.000000 0.000000 0.000000 
3.225181 21.122335 2.537187 53.327693 -89.469673 -29.352049 -11.613432 4.135822 2.470211 -4.682557 4.551508 -12.512137 -0.046431 0.593271 16.224214 2.008594 4.859007 40.843060 2.727100 -0.000000 -63.784600 11.331917 -3.527723 0.455087 3.909014 -10.520548 -10.509874 1.080500 -0.884003 9.178822 -0.640616 8.136803 43.594065 6.441001 0.000000 -77.696000 -0.297121 -1.254190 -3.370160 0.060338 -1.218392 -3.746518 -1.977130 -1.226182 -1.652849 -1.525748 -5.855731 2.831071 -1.483602 -0.264594 2.839655 0.000000 0.000000 0.000000 21.040115 1.555316 -3.102853 -56.563264 -19.394862 -11.198433 178.190916 -61.587200 179.808818 14.517538 -3.119220 -0.507837 -0.207030 0.816948 -0.000000 0.000000 0.000000 0.000000 0.000000 0.000000 0.000000 -10.683824 -3.997450 -4.108392 48.730100 45.903956 -3.441555 -179.030470 83.076702 179.741333 -21.753943 15.567560 -3.217410 0.210573 -0.888759 -0.000000 0.000000 0.000000 0.000000 0.000000 0.000000 0.000000 
